<svg viewBox="0 0 500 500" xmlns="http://www.w3.org/2000/svg">
  <defs></defs>
  <ellipse cx="121.193" cy="391.17" rx="89.034" ry="7.21" fill="#e6e6e6" style=""></ellipse>
  <path d="M 100.215 140.46 C 115.71 133.435 135.008 137.886 153.856 140.976 C 154.032 137.235 156.157 132.68 153.931 130.07 C 151.225 126.899 151.474 123.567 153.102 120.215 C 157.265 111.645 151.3 102.527 145.278 94.944 C 142.525 91.486 138.389 89.635 134.146 89.963 L 122.989 90.812 C 117.43 91.236 112.702 95.294 111.126 100.993 C 108.462 104.855 107.036 108.707 107.934 112.539 C 103.944 115.446 103.273 118.955 105.067 122.911 C 106.587 125.402 106.571 127.826 104.998 130.184 C 102.932 133.189 101.349 136.541 100.315 140.1 L 100.215 140.46 Z" style="fill: rgb(31, 35, 47);"></path>
  <path d="M 468.433 353.461 L 152.632 353.461 C 146.783 353.461 142.043 348.406 142.043 342.171 C 256.521 327.987 368.847 327.987 479.022 342.171 C 479.022 348.406 474.282 353.461 468.433 353.461 Z" style="fill: rgb(31, 35, 47);"></path>
  <path d="M 479.022 342.835 L 142.043 342.171 L 181.097 272.112 L 181.285 271.779 L 181.285 117.377 C 181.285 109.496 187.277 103.106 194.671 103.106 L 424.526 103.106 C 431.919 103.106 437.913 109.496 437.912 117.377 L 437.912 272.842 L 479.022 342.835 Z" style="fill: rgb(31, 35, 47);"></path>
  <path d="M 194.366 113.067 C 191.958 113.071 190.007 115.15 190.005 117.716 L 190.005 258.499 C 190.007 261.065 191.958 263.144 194.366 263.147 L 426.7 263.147 C 429.107 263.144 431.056 261.064 431.06 258.499 L 431.06 117.716 C 431.057 115.15 429.107 113.071 426.7 113.067 L 194.366 113.067 Z" fill="#fff" style=""></path>
  <path d="M 195.339 281.741 C 194.609 281.742 193.947 282.195 193.641 282.901 L 181.607 310.791 C 181.037 312.111 181.942 313.616 183.304 313.616 L 436.372 313.616 C 437.761 313.616 438.665 312.058 438.044 310.733 L 424.963 282.842 C 424.648 282.166 424.001 281.739 423.292 281.741 L 195.339 281.741 Z" fill="#2f2e41" style=""></path>
  <circle cx="470.402" cy="71.49" r="4.974" fill="#fff" style="" transform="matrix(0.56351, 0, 0, 0.600771, 44.521519, 64.806572)"></circle>
  <path d="M 284.724 318.929 C 283.879 318.93 283.14 319.533 282.919 320.403 L 279.901 332.356 C 279.581 333.622 280.475 334.866 281.704 334.866 L 339.111 334.866 C 340.397 334.866 341.298 333.517 340.877 332.222 L 336.997 320.269 C 336.736 319.467 336.027 318.929 335.231 318.929 L 284.724 318.929 Z" fill="#2f2e41" style=""></path>
  <polygon points="437.912 269.456 437.912 272.112 181.097 272.112 181.29 271.78 181.29 269.456 437.912 269.456" fill="#2f2e41" style=""></polygon>
  <circle cx="685.395" cy="80.886" r="77.375" fill="#f18303" style="" transform="matrix(0.56351, 0, 0, 0.600771, 44.521519, 64.806572)"></circle>
  <path d="M 448.812 133.654 L 412.685 133.654 C 411.31 133.652 410.195 132.464 410.193 130.997 L 410.193 107.755 C 410.195 106.289 411.31 105.1 412.685 105.099 L 448.812 105.099 C 450.188 105.1 451.302 106.289 451.304 107.755 L 451.304 130.997 C 451.302 132.464 450.188 133.652 448.812 133.654 Z M 412.685 107.755 L 412.685 130.997 L 448.814 130.997 L 448.812 107.755 L 412.685 107.755 Z" fill="#fff" style=""></path>
  <path d="M 441.961 107.755 L 419.537 107.755 L 419.537 97.13 C 419.537 89.434 424.252 83.848 430.749 83.848 C 437.246 83.848 441.961 89.434 441.961 97.13 L 441.961 107.755 Z M 422.028 105.099 L 439.47 105.099 L 439.47 97.13 C 439.47 90.874 435.884 86.505 430.749 86.505 C 425.614 86.505 422.028 90.874 422.028 97.13 L 422.028 105.099 Z" fill="#fff" style=""></path>
  <circle cx="685.395" cy="89.729" r="4.421" fill="#fff" style="" transform="matrix(0.56351, 0, 0, 0.600771, 44.521519, 64.806572)"></circle>
  <path d="M 400.31 215.395 L 220.754 215.395 C 218.918 215.392 217.431 213.807 217.43 211.85 L 217.43 164.365 C 217.431 162.407 218.918 160.822 220.754 160.82 L 400.31 160.82 C 402.147 160.822 403.633 162.407 403.636 164.365 L 403.636 211.85 C 403.633 213.807 402.147 215.392 400.31 215.395 Z M 220.754 162.237 C 219.653 162.239 218.761 163.19 218.76 164.365 L 218.76 211.85 C 218.761 213.024 219.653 213.975 220.754 213.977 L 400.31 213.977 C 401.412 213.975 402.305 213.024 402.306 211.85 L 402.306 164.365 C 402.305 163.19 401.412 162.239 400.31 162.237 L 220.754 162.237 Z" fill="#e6e6e6" style=""></path>
  <circle cx="362.251" cy="202.206" r="24.036" fill="#e6e6e6" style="" transform="matrix(0.56351, 0, 0, 0.600771, 44.521519, 64.806572)"></circle>
  <path d="M 279.935 176.659 C 278.197 176.655 277.108 178.659 277.975 180.265 C 278.379 181.013 279.127 181.473 279.935 181.472 L 386.359 181.472 C 388.097 181.472 389.183 179.466 388.314 177.862 C 387.911 177.118 387.166 176.659 386.359 176.659 L 279.935 176.659 Z" fill="#e6e6e6" style=""></path>
  <path d="M 279.935 191.099 C 278.197 191.099 277.111 193.105 277.981 194.709 C 278.384 195.453 279.129 195.912 279.935 195.912 L 325.729 195.912 C 327.467 195.912 328.554 193.906 327.685 192.302 C 327.282 191.558 326.537 191.099 325.729 191.099 L 279.935 191.099 Z" fill="#e6e6e6" style=""></path>
  <path d="M 180.655 192.072 L 147.463 210.886 L 147.043 195.208 C 157.876 193.279 168.185 189.922 177.715 184.457 L 181.186 175.314 C 182.841 170.955 188.268 170.071 191.068 173.705 C 193.011 176.226 192.787 179.923 190.556 182.157 L 180.655 192.072 Z" fill="#ffb8b8" style=""></path>
  <path d="M 99.554 300.694 C 99.063 298.779 99.364 296.733 100.381 295.07 L 107.673 283.139 C 111.246 277.294 118.39 275.284 124.203 278.49 C 121.139 284.051 121.566 288.929 125.261 293.169 C 119.525 296.155 114.222 300.009 109.519 304.611 C 105.818 307.301 100.731 305.303 99.554 300.694 Z" fill="#2f2e41" style=""></path>
  <path d="M 182.167 285.096 C 179.924 289.083 175.895 291.536 171.534 291.571 L 123.094 291.963 L 120.993 278.973 L 142.421 272.254 L 124.355 257.471 L 144.102 232.835 L 179.969 268.475 C 184.289 272.768 185.206 279.697 182.167 285.096 Z" style="fill: rgb(31, 35, 47);"></path>
  <path d="M 115.532 373.936 L 104.188 373.936 C 94.002 299.502 83.633 224.859 114.271 197 L 150.405 203.27 L 145.783 235.971 L 125.616 260.607 L 115.532 373.936 Z" style="fill: rgb(31, 35, 47);"></path>
  <path d="M 125.503 390.797 C 123.707 391.32 121.787 390.999 120.227 389.916 L 107.91 388.15 C 102.426 384.341 100.541 376.724 103.548 370.527 C 108.764 373.793 113.34 373.338 117.316 369.398 C 120.126 375.446 124.755 375.077 129.176 380.172 C 131.7 384.119 129.826 389.541 125.503 390.797 Z" style="fill: rgb(31, 35, 47);"></path>
  <path d="M 142.421 147.278 L 121.414 141.903 C 124.902 134.289 125.19 125.816 123.514 116.819 L 137.799 116.37 C 138.247 127.56 139.602 138.013 142.421 147.278 Z" fill="#ffb8b8" style=""></path>
  <path d="M 148.195 216.758 C 132.902 227.868 122.096 217.138 113.852 200.584 C 114.996 190.453 113.142 178.33 109.705 165.158 C 106.537 153.113 112.535 140.487 123.514 136.079 L 141.581 144.143 C 156.922 157.474 159.942 171.915 154.186 187.145 L 148.195 216.758 Z" fill="#f18303" style=""></path>
  <path d="M 104.188 158.476 L 87.38 167.883 L 117.212 186.697 L 121.363 197.613 C 122.532 200.688 121.043 204.18 118.1 205.261 C 114.7 206.511 111.12 203.955 110.91 200.128 L 110.489 192.52 L 72.575 179.181 C 69.986 178.27 67.934 176.141 67.01 173.406 C 65.645 169.362 67.012 164.843 70.337 162.411 L 100.826 140.111 L 104.188 158.476 Z" fill="#ffb8b8" style=""></path>
  <path d="M 120.993 160.268 C 113.984 156.994 107.611 160.551 99.566 163.404 L 98.305 139.663 C 106.293 135.124 113.91 133.9 120.993 137.424 L 120.993 160.268 Z" fill="#f18303" style=""></path>
  <circle cx="150.585" cy="81.603" r="23.802" fill="#ffb8b8" style="" transform="matrix(0.56351, 0, 0, 0.600771, 44.521519, 64.806572)"></circle>
  <path d="M 145.424 112.026 C 132.145 113.413 122.025 111.097 115.558 104.504 L 115.558 99.195 L 144.297 99.195 L 145.424 112.026 Z" style="fill: rgb(31, 35, 47);"></path>
</svg>